<?xml version="1.0" standalone="no"?>
<!DOCTYPE svg PUBLIC "-//W3C//DTD SVG 20010904//EN"
 "http://www.w3.org/TR/2001/REC-SVG-20010904/DTD/svg10.dtd">
<svg version="1.0" xmlns="http://www.w3.org/2000/svg"
 width="500.000000pt" height="500.000000pt" viewBox="0 0 500.000000 500.000000"
 preserveAspectRatio="xMidYMid meet">

<g transform="translate(0.000000,500.000000) scale(0.100000,-0.100000)"
fill="#000000" stroke="none">
<path d="M2020 2743 c-116 -19 -205 -87 -240 -181 -30 -78 -29 -206 0 -284 23
-61 86 -129 144 -153 154 -65 359 -26 443 84 91 119 81 352 -20 449 -75 72
-205 106 -327 85z m96 -199 c31 -8 44 -46 44 -130 0 -67 -3 -78 -26 -100 -19
-20 -31 -24 -52 -19 -44 10 -52 31 -52 127 0 75 3 91 20 108 21 21 32 23 66
14z"/>
<path d="M2876 2736 c-21 -8 -54 -29 -72 -47 l-34 -33 0 37 0 37 -150 0 -150
0 0 -89 c0 -85 1 -90 23 -93 21 -3 22 -6 22 -128 0 -122 -1 -125 -22 -128 -22
-3 -23 -8 -23 -93 l0 -89 200 0 200 0 0 89 0 90 -47 3 -48 3 2 78 c2 84 14
114 58 143 26 17 122 23 163 10 22 -7 22 -7 22 98 0 58 -4 107 -9 110 -23 14
-99 15 -135 2z"/>
<path d="M3466 2736 c-21 -8 -54 -29 -72 -47 l-34 -33 0 37 0 37 -150 0 -150
0 0 -89 c0 -85 1 -90 23 -93 21 -3 22 -6 22 -128 0 -122 -1 -125 -22 -128 -22
-3 -23 -8 -23 -93 l0 -89 200 0 200 0 0 89 0 90 -47 3 -48 3 2 78 c2 84 14
114 58 143 26 17 122 23 163 10 22 -7 22 -7 22 98 0 58 -4 107 -9 110 -23 14
-99 15 -135 2z"/>
<path d="M680 2640 c0 -88 1 -90 24 -90 21 0 29 -17 98 -217 l75 -218 129 -3
130 -3 28 148 c16 82 32 152 36 156 4 4 19 -54 34 -130 15 -76 29 -146 32
-156 5 -16 18 -17 142 -15 l136 3 70 218 c64 200 71 217 93 217 22 0 23 3 23
90 l0 90 -165 0 -165 0 0 -90 0 -90 26 0 c22 0 25 -4 21 -22 -3 -13 -11 -51
-18 -85 -7 -35 -16 -63 -20 -63 -6 0 -27 84 -72 285 l-14 60 -105 3 -105 3
-39 -176 c-21 -96 -42 -175 -46 -175 -7 0 -38 127 -38 154 0 9 9 16 20 16 19
0 20 7 20 90 l0 90 -175 0 -175 0 0 -90z"/>
<path d="M3640 2640 c0 -82 2 -90 19 -90 10 0 21 -6 24 -12 2 -7 42 -109 87
-226 45 -117 79 -219 76 -227 -8 -23 -47 -19 -53 5 -5 19 -12 21 -82 18 l-76
-3 -3 -102 -3 -102 38 -11 c21 -7 77 -14 125 -17 80 -5 92 -3 142 21 98 48
142 125 266 459 67 179 75 197 97 197 22 0 23 2 23 90 l0 90 -160 0 -160 0 0
-90 c0 -83 1 -90 20 -90 11 0 20 -2 20 -4 0 -12 -43 -142 -49 -148 -4 -4 -19
28 -33 72 -25 76 -25 80 -7 80 17 0 19 8 19 90 l0 90 -165 0 -165 0 0 -90z"/>
</g>
</svg>
