<?xml version="1.0" standalone="no"?>
<!DOCTYPE svg PUBLIC "-//W3C//DTD SVG 20010904//EN"
 "http://www.w3.org/TR/2001/REC-SVG-20010904/DTD/svg10.dtd">
<svg version="1.0" xmlns="http://www.w3.org/2000/svg"
 width="200.000000pt" height="200.000000pt" viewBox="0 0 200.000000 200.000000"
 preserveAspectRatio="xMidYMid meet">

<g transform="translate(0.000000,200.000000) scale(0.100000,-0.100000)"
fill="#000000" stroke="none">
<path d="M775 1090 c-92 -38 -99 -192 -10 -234 42 -20 107 -20 145 -1 83 43
79 195 -5 231 -37 15 -98 18 -130 4z m80 -120 c0 -38 -3 -45 -20 -45 -15 0
-21 8 -23 33 -4 45 4 64 25 60 14 -3 18 -13 18 -48z"/>
<path d="M1133 1085 c-13 -9 -23 -11 -23 -6 0 7 -25 11 -60 11 l-60 0 0 -34
c0 -19 5 -38 10 -41 6 -3 10 -26 10 -51 0 -24 -4 -44 -10 -44 -5 0 -10 -18
-10 -40 l0 -41 78 3 77 3 3 38 c3 32 0 37 -17 37 -17 0 -21 6 -21 34 0 42 20
60 66 58 l35 -1 -3 42 c-3 36 -6 42 -28 45 -14 1 -35 -4 -47 -13z"/>
<path d="M1366 1083 c-13 -13 -20 -15 -23 -5 -3 8 -26 12 -64 12 l-59 0 0 -35
c0 -19 5 -35 10 -35 6 0 10 -22 10 -50 0 -29 -5 -50 -11 -50 -6 0 -9 -16 -7
-37 l3 -38 80 0 80 0 0 35 c0 29 -4 36 -24 38 -20 3 -22 7 -17 35 9 42 28 60
65 59 30 -1 31 1 31 44 0 42 -2 44 -28 44 -15 0 -36 -8 -46 -17z"/>
<path d="M270 1059 c0 -18 6 -37 14 -43 7 -6 26 -48 41 -94 l27 -83 51 3 52 3
9 53 c5 28 12 52 16 52 4 0 11 -24 16 -52 l9 -53 55 0 55 0 27 85 c16 47 32
86 38 88 5 2 10 19 10 38 l0 34 -65 0 -65 0 0 -34 c0 -19 4 -36 10 -38 6 -2 6
-14 1 -33 -10 -34 -13 -28 -31 53 l-12 52 -43 0 -43 0 -13 -65 c-7 -35 -16
-62 -20 -60 -10 7 -17 55 -8 55 5 0 9 16 9 35 l0 35 -70 0 -70 0 0 -31z"/>
<path d="M1450 1059 c0 -18 6 -37 14 -43 10 -8 76 -164 76 -181 0 -1 -20 0
-45 3 l-45 5 0 -41 c0 -46 9 -52 77 -52 62 0 92 34 139 158 20 53 43 102 50
108 8 6 14 25 14 43 l0 31 -66 0 -67 0 5 -47 c3 -27 3 -57 -1 -67 -7 -18 -9
-16 -19 12 -6 19 -7 32 -1 32 5 0 9 16 9 35 l0 35 -70 0 -70 0 0 -31z"/>
</g>
</svg>
