<?xml version="1.0" standalone="no"?>
<!DOCTYPE svg PUBLIC "-//W3C//DTD SVG 20010904//EN"
 "http://www.w3.org/TR/2001/REC-SVG-20010904/DTD/svg10.dtd">
<svg version="1.0" xmlns="http://www.w3.org/2000/svg"
 width="200.000000pt" height="200.000000pt" viewBox="0 0 200.000000 200.000000"
 preserveAspectRatio="xMidYMid meet">

<g transform="translate(0.000000,200.000000) scale(0.100000,-0.100000)"
fill="none" stroke="none">
<path d="M0 1000 l0 -1000 1000 0 1000 0 0 1000 0 1000 -1000 0 -1000 0 0
-1000z m905 86 c84 -36 88 -188 5 -231 -38 -19 -103 -19 -145 1 -89 42 -82
196 10 234 32 14 93 11 130 -4z m303 -33 l3 -42 -35 1 c-46 2 -66 -16 -66 -58
0 -28 4 -34 21 -34 17 0 20 -5 17 -37 l-3 -38 -77 -3 -78 -3 0 41 c0 22 5 40
10 40 6 0 10 20 10 44 0 25 -4 48 -10 51 -5 3 -10 22 -10 41 l0 34 60 0 c35 0
60 -4 60 -11 0 -5 10 -3 23 6 12 9 33 14 47 13 22 -3 25 -9 28 -45z m232 3 c0
-43 -1 -45 -31 -44 -37 1 -56 -17 -65 -59 -5 -28 -3 -32 17 -35 20 -2 24 -9
24 -38 l0 -35 -80 0 -80 0 -3 38 c-2 21 1 37 7 37 6 0 11 21 11 50 0 28 -4 50
-10 50 -5 0 -10 16 -10 35 l0 35 59 0 c38 0 61 -4 64 -12 3 -10 10 -8 23 5 10
9 31 17 46 17 26 0 28 -2 28 -44z m-1030 -1 c0 -19 -4 -35 -9 -35 -9 0 -2 -48
8 -55 4 -2 13 25 20 60 l13 65 43 0 43 0 12 -52 c18 -81 21 -87 31 -53 5 19 5
31 -1 33 -6 2 -10 19 -10 38 l0 34 65 0 65 0 0 -34 c0 -19 -5 -36 -10 -38 -6
-2 -22 -41 -38 -88 l-27 -85 -55 0 -55 0 -9 53 c-5 28 -12 52 -16 52 -4 0 -11
-24 -16 -52 l-9 -53 -52 -3 -51 -3 -27 83 c-15 46 -34 88 -41 94 -8 6 -14 25
-14 43 l0 31 70 0 70 0 0 -35z m1180 0 c0 -19 -4 -35 -9 -35 -6 0 -5 -13 1
-32 10 -28 12 -30 19 -12 4 10 4 40 1 67 l-5 47 67 0 66 0 0 -31 c0 -18 -6
-37 -14 -43 -7 -6 -30 -55 -50 -108 -47 -124 -77 -158 -139 -158 -68 0 -77 6
-77 52 l0 41 45 -5 c25 -3 45 -4 45 -3 0 17 -66 173 -76 181 -8 6 -14 25 -14
43 l0 31 70 0 70 0 0 -35z"/>
<path d="M814 1007 c-3 -8 -4 -30 -2 -49 2 -25 8 -33 23 -33 17 0 20 7 20 45
0 35 -4 45 -18 48 -9 2 -20 -3 -23 -11z"/>
</g>
</svg>
